<?xml version="1.0" standalone="no"?>
<!DOCTYPE svg PUBLIC "-//W3C//DTD SVG 20010904//EN"
 "http://www.w3.org/TR/2001/REC-SVG-20010904/DTD/svg10.dtd">
<svg version="1.0" xmlns="http://www.w3.org/2000/svg"
 width="184.000000pt" height="184.000000pt" viewBox="0 0 184.000000 184.000000"
 preserveAspectRatio="xMidYMid meet">
<metadata>
Created by potrace 1.14, written by Peter Selinger 2001-2017
</metadata>
<g transform="translate(0.000000,184.000000) scale(0.100000,-0.100000)"
fill="#000000" stroke="none">
<path d="M0 920 l0 -920 920 0 920 0 0 920 0 920 -920 0 -920 0 0 -920z m1072
840 c21 -6 51 -22 67 -35 16 -14 39 -25 52 -25 63 0 119 -70 160 -199 25 -78
40 -313 20 -325 -8 -5 -11 20 -11 87 0 94 -26 207 -49 215 -5 2 -30 19 -55 38
-50 38 -70 66 -75 105 0 5 -12 -3 -26 -18 -21 -24 -24 -26 -25 -9 0 19 -1 19
-20 -2 -26 -28 -30 -28 -22 1 5 22 5 22 -16 3 -29 -25 -36 -16 -18 20 19 36
12 43 -17 16 -59 -56 -224 -105 -392 -117 -119 -9 -121 -10 -145 -59 -18 -38
-21 -63 -21 -166 -1 -66 -4 -120 -7 -120 -10 0 -17 82 -17 205 0 100 2 115 28
165 59 118 147 179 312 215 73 16 227 19 277 5z m98 -210 c0 -5 18 -27 41 -49
28 -26 36 -40 27 -44 -7 -3 1 -4 17 -4 46 3 65 -46 72 -183 6 -110 1 -128 -26
-96 -7 8 -37 22 -67 32 -46 14 -66 15 -137 6 -111 -14 -109 -14 -132 -39 -11
-13 -32 -23 -47 -23 -26 0 -53 22 -41 33 3 4 2 7 -3 8 -5 0 -16 2 -24 4 -93
21 -177 27 -224 15 -28 -7 -59 -14 -68 -15 -10 -1 -21 -5 -25 -10 -5 -4 -1 -4
7 0 13 8 13 7 1 -8 -7 -9 -17 -17 -20 -17 -4 0 -9 45 -10 101 -1 57 1 99 6 96
5 -3 7 8 5 25 -3 21 -1 29 7 24 7 -5 9 -1 5 9 -12 29 14 43 84 45 99 3 111 4
106 12 -2 3 20 9 48 13 29 4 58 11 63 15 6 4 22 10 37 14 14 3 34 9 45 12 16
6 16 5 -2 -10 -19 -15 -19 -16 15 -14 19 1 45 -4 57 -10 26 -14 45 -16 23 -2
-12 7 -10 11 10 18 16 6 29 6 37 0 8 -7 25 0 55 21 46 32 58 37 58 21z m-361
-386 c17 -4 36 -15 42 -26 16 -30 -8 -124 -41 -161 -27 -30 -33 -32 -112 -35
-107 -5 -128 9 -138 89 -9 72 3 115 38 127 31 12 164 15 211 6z m428 -5 c38
-14 43 -25 43 -100 0 -56 -4 -70 -25 -93 -22 -24 -31 -26 -99 -26 -41 0 -86 5
-100 12 -26 11 -66 80 -66 112 0 16 3 15 19 -5 16 -20 30 -24 93 -27 69 -4 76
-2 106 23 18 15 32 33 32 41 0 32 -108 46 -158 20 -15 -7 -44 -16 -64 -20 -33
-6 -38 -4 -38 12 0 24 20 49 45 55 40 9 184 7 212 -4z m-700 -110 c3 -58 20
-109 35 -109 5 0 6 -5 2 -12 -4 -6 -3 -8 3 -5 13 8 55 -22 48 -34 -10 -15 2
-10 16 8 8 10 9 14 2 10 -6 -4 -14 -3 -17 2 -3 4 28 9 69 9 45 1 86 7 104 16
32 17 66 78 76 139 7 35 9 37 45 37 37 0 38 -1 45 -42 9 -59 48 -123 83 -137
16 -7 61 -12 100 -13 40 0 69 -4 66 -9 -3 -5 -10 -7 -15 -4 -15 10 -10 -2 8
-16 9 -8 14 -9 10 -3 -9 15 29 48 44 38 8 -4 10 -3 5 4 -4 7 -1 12 7 12 7 0
14 6 15 13 4 44 16 98 23 102 9 6 7 -24 -5 -70 -4 -16 -21 -86 -38 -155 -17
-69 -36 -136 -43 -150 -7 -14 -39 -49 -72 -78 -32 -30 -66 -60 -75 -69 -9 -8
-21 -12 -27 -8 -6 3 -11 2 -11 -3 0 -31 -148 -42 -221 -17 -49 18 -50 19 -141
108 -74 73 -73 69 -132 317 -35 150 -40 183 -23 177 6 -2 12 -28 14 -58z m673
51 c13 -8 12 -13 -7 -32 l-23 -22 0 32 c0 34 5 38 30 22z m117 -10 c1 -13 -4
-20 -15 -20 -15 0 -15 2 -2 10 11 7 11 10 2 10 -7 0 -10 5 -7 10 10 16 21 11
22 -10z m-874 -15 c-3 -9 -8 -14 -10 -11 -3 3 -2 9 2 15 9 16 15 13 8 -4z
m607 -10 c0 -8 -4 -15 -9 -15 -13 0 -22 16 -14 24 11 11 23 6 23 -9z m327 -67
c-3 -8 -6 -5 -6 6 -1 11 2 17 5 13 3 -3 4 -12 1 -19z m-900 -20 c-3 -8 -6 -5
-6 6 -1 11 2 17 5 13 3 -3 4 -12 1 -19z m866 -63 c-3 -9 -8 -14 -10 -11 -3 3
-2 9 2 15 9 16 15 13 8 -4z m-823 -52 c0 -7 -4 -13 -9 -13 -10 0 -21 25 -21
48 1 15 3 14 15 -2 8 -11 15 -26 15 -33z m801 -6 c-6 -15 -16 -27 -22 -27 -8
0 -8 4 1 15 6 8 9 19 5 25 -3 5 -1 10 5 10 6 0 8 6 4 13 -5 9 -4 9 5 1 8 -8 9
-18 2 -37z m-571 -437 c11 -11 20 -18 20 -15 0 2 20 -2 44 -9 83 -25 197 -12
260 29 21 14 29 15 41 5 8 -7 12 -17 8 -23 -3 -6 -1 -7 5 -3 18 11 82 -42 75
-62 -4 -14 -3 -15 6 -2 7 11 13 12 21 4 9 -9 6 -16 -11 -27 -12 -9 -27 -13
-32 -10 -6 3 -7 1 -4 -4 10 -15 -20 -36 -39 -29 -9 4 -22 2 -29 -4 -7 -6 -30
-11 -51 -13 -39 -2 -39 -2 -39 36 0 20 -2 37 -5 37 -5 0 -41 -75 -53 -112 -9
-25 -63 -33 -93 -13 -16 10 -23 22 -20 31 4 10 2 12 -6 8 -8 -5 -9 2 -4 22 4
19 3 24 -2 15 -7 -9 -11 -4 -16 20 -16 80 -19 89 -28 89 -10 0 -4 -91 9 -133
4 -15 1 -18 -14 -14 -10 3 -45 7 -78 9 -61 2 -121 30 -109 49 3 5 0 8 -8 7 -7
-2 -12 2 -11 9 2 7 -4 10 -15 7 -15 -4 -15 -3 2 8 10 7 46 34 80 60 33 25 64
47 69 47 4 1 16 -8 27 -19z m78 -226 c12 -8 26 -13 31 -10 5 3 16 -3 26 -14
14 -16 21 -17 39 -8 11 6 26 17 31 24 14 17 55 28 55 15 0 -6 5 -11 11 -11 5
0 7 5 4 10 -3 6 -3 11 2 11 64 9 64 7 -15 -46 -81 -54 -121 -63 -123 -26 0 9
-3 11 -5 4 -4 -8 -24 -2 -65 19 -33 17 -62 34 -65 39 -3 5 -9 7 -14 4 -5 -3
-12 0 -16 6 -9 16 74 2 104 -17z"/>
<path d="M1302 1365 c0 -16 2 -22 5 -12 2 9 2 23 0 30 -3 6 -5 -1 -5 -18z"/>
<path d="M616 1117 c-24 -18 -14 -48 23 -70 56 -33 201 -12 201 29 0 11 -5 14
-17 10 -10 -4 -14 -4 -10 0 12 12 -84 44 -134 44 -25 0 -53 -6 -63 -13z m44
-37 c0 -35 -14 -39 -31 -9 -9 17 -8 23 2 30 23 15 29 10 29 -21z m142 -15 c0
-5 -5 -11 -11 -13 -6 -2 -11 4 -11 13 0 9 5 15 11 13 6 -2 11 -8 11 -13z"/>
<path d="M877 931 c-15 -55 -27 -104 -27 -110 0 -6 14 -17 30 -26 27 -14 33
-14 60 0 39 20 38 31 -5 39 l-34 7 6 94 c3 52 4 95 1 95 -3 0 -17 -45 -31 -99z"/>
<path d="M620 731 c0 -6 4 -13 10 -16 6 -3 7 1 4 9 -7 18 -14 21 -14 7z"/>
<path d="M782 689 c2 -7 22 -17 44 -22 50 -11 212 -3 227 12 20 20 -2 24 -63
11 -55 -12 -83 -11 -179 7 -26 4 -33 3 -29 -8z"/>
<path d="M922 632 c-23 -2 -40 -7 -37 -13 8 -13 72 -12 80 2 9 14 7 14 -43 11z"/>
<path d="M698 333 c10 -4 9 -9 -5 -20 -17 -13 -16 -13 5 -3 22 11 22 31 -1 29
-8 0 -8 -2 1 -6z"/>
<path d="M1170 336 c0 -2 7 -7 16 -10 8 -3 12 -2 9 4 -6 10 -25 14 -25 6z"/>
<path d="M665 290 c10 -11 20 -20 23 -20 3 0 -3 9 -13 20 -10 11 -20 20 -23
20 -3 0 3 -9 13 -20z"/>
<path d="M1160 289 c0 -5 5 -7 10 -4 6 3 10 8 10 11 0 2 -4 4 -10 4 -5 0 -10
-5 -10 -11z"/>
<path d="M630 286 c0 -2 7 -7 16 -10 8 -3 12 -2 9 4 -6 10 -25 14 -25 6z"/>
<path d="M949 133 c-13 -16 -12 -17 4 -4 16 13 21 21 13 21 -2 0 -10 -8 -17
-17z"/>
</g>
</svg>
